<svg xmlns="http://www.w3.org/2000/svg" width="159" height="51" viewBox="0 0 159 51">
  <metadata><?xpacket begin="﻿" id="W5M0MpCehiHzreSzNTczkc9d"?>
<x:xmpmeta xmlns:x="adobe:ns:meta/" x:xmptk="Adobe XMP Core 5.6-c138 79.159824, 2016/09/14-01:09:01        ">
   <rdf:RDF xmlns:rdf="http://www.w3.org/1999/02/22-rdf-syntax-ns#">
      <rdf:Description rdf:about=""/>
   </rdf:RDF>
</x:xmpmeta>
                                                                                                    
                                                                                                    
                                                                                                    
                                                                                                    
                                                                                                    
                                                                                                    
                                                                                                    
                                                                                                    
                                                                                                    
                                                                                                    
                                                                                                    
                                                                                                    
                                                                                                    
                                                                                                    
                                                                                                    
                                                                                                    
                                                                                                    
                                                                                                    
                                                                                                    
                                                                                                    
                           
<?xpacket end="w"?></metadata>
<defs>
    <style>
      .cls-1 {
        fill: #049ee8;
        fill-rule: evenodd;
      }
    </style>
  </defs>
  <path id="LOGO" class="cls-1" d="M361.059,478.623a2.907,2.907,0,0,0-1.869.691L354,474.847l3.987-12.327c0.044,0,.086.014,0.132,0.014a2.034,2.034,0,0,0,0-4.068c-0.046,0-.088.01-0.133,0.013l-3.48-10.765a2.032,2.032,0,0,0-1.076-3.752,2,2,0,0,0-1.293.483l-9.177-6.662a2.021,2.021,0,1,0-3.833-1.246H328.016a2.02,2.02,0,1,0-3.832,1.246l-9.178,6.662a2,2,0,0,0-1.294-.483,2.032,2.032,0,0,0-1.074,3.752l-3.464,10.714c-0.05,0-.1-0.015-0.15-0.015a2.034,2.034,0,0,0,0,4.068c0.039,0,.077-0.009.117-0.012l3.5,10.817a2.032,2.032,0,0,0,1.074,3.752,1.99,1.99,0,0,0,1.269-.462l9.2,6.646a2.02,2.02,0,1,0,3.834,1.241h11.112a2.019,2.019,0,0,0,3.979-.5,2.05,2.05,0,0,0-.144-0.745l10.44-7.585,5.143,4.429A2.927,2.927,0,1,0,361.059,478.623Zm-7.3-30.01,3.288,10.169a2.026,2.026,0,0,0-.882,1.223h-1.689a2.024,2.024,0,0,0-1.351-1.485Zm-0.944-.689L352.14,458.45c-0.047.009-.094,0.022-0.141,0.034l-4.182-7.943a2.021,2.021,0,0,0,.67-1.5,2.069,2.069,0,0,0-.035-0.337l0.544-.235,2.839-1.236A2.013,2.013,0,0,0,352.815,447.924Zm-11.344,10.582a1.864,1.864,0,0,0-.936.046l-5.577-9.709a2.035,2.035,0,0,0,.481-0.689l9.024,1.125a2.007,2.007,0,0,0,.717,1.321Zm4.608-7.471a2.109,2.109,0,0,0,.384.039,1.981,1.981,0,0,0,.483-0.066l4.187,7.951a2.023,2.023,0,0,0-.6,1.046h-7.492a2.012,2.012,0,0,0-.632-1.031Zm-6.4,8.01a2.03,2.03,0,0,0-.548.96H328.015a2.007,2.007,0,0,0-.548-0.962l5.583-9.718a1.834,1.834,0,0,0,1.045,0Zm-13.07-.493a1.971,1.971,0,0,0-.545-0.085,2,2,0,0,0-.39.039l-3.706-7.9a2.021,2.021,0,0,0,.721-1.323l9.006-1.169a2.07,2.07,0,0,0,.476.716Zm-1.824.385a2.019,2.019,0,0,0-.677,1.068H316.67a2.019,2.019,0,0,0-.611-1.014l4.157-7.978a1.98,1.98,0,0,0,.471.061,2.1,2.1,0,0,0,.39-0.04ZM316.67,461H324.1a2.022,2.022,0,0,0,.678,1.069l-3.711,7.912a2.016,2.016,0,0,0-.384-0.04,1.992,1.992,0,0,0-.474.063l-4.156-7.988A2.021,2.021,0,0,0,316.67,461Zm9,1.5a2.088,2.088,0,0,0,.39.039,1.963,1.963,0,0,0,.549-0.086l5.555,9.671a2.026,2.026,0,0,0-.475.725l-9-1.123a2.015,2.015,0,0,0-.723-1.317Zm1.8-.539a2.029,2.029,0,0,0,.546-0.961h11.111a2.039,2.039,0,0,0,.547.961l-5.553,9.673a1.8,1.8,0,0,0-1.1,0Zm13.065,0.492a1.94,1.94,0,0,0,.549.086,2.058,2.058,0,0,0,.388-0.039l3.712,7.912a2.01,2.01,0,0,0-.719,1.313l-9.011,1.124a2.013,2.013,0,0,0-.475-0.725Zm1.828-.384A2.026,2.026,0,0,0,343.04,461h7.524a2.023,2.023,0,0,0,.61.971L346.942,470a1.991,1.991,0,0,0-.479-0.065,2.016,2.016,0,0,0-.39.041Zm0.014-23.481,9.179,6.662a2.014,2.014,0,0,0-.147.751,1.935,1.935,0,0,0,.033.325l-3.389,1.474a1.959,1.959,0,0,0-1.941-.755l-3.57-7.963-0.2-.459C342.35,438.608,342.365,438.6,342.377,438.584Zm-2.046.334a1.986,1.986,0,0,0,.753.149,2.074,2.074,0,0,0,.355-0.036l0.542,1.209,3.232,7.211a2.026,2.026,0,0,0-.626.834l-9.016-1.171a2.022,2.022,0,0,0-.43-1.017Zm-12.315-1.389h11.112a2.025,2.025,0,0,0,.4.79l-5.246,7.15a1.964,1.964,0,0,0-1.461.012l-5.21-7.156A2.032,2.032,0,0,0,328.016,437.529Zm-1.955,1.538a1.981,1.981,0,0,0,.752-0.149L332,446.1a2.016,2.016,0,0,0-.429,1.013l-9.01,1.183a2.012,2.012,0,0,0-.626-0.84l3.768-8.422A2.062,2.062,0,0,0,326.061,439.067Zm-1.295-.483,0.042,0.036-3.768,8.421a2.04,2.04,0,0,0-.353-0.035,2,2,0,0,0-1.6.8l-3.389-1.478a2.1,2.1,0,0,0,.032-0.328,2.053,2.053,0,0,0-.145-0.751Zm-9.458,8.65,3.388,1.478a2.2,2.2,0,0,0-.033.328,2.03,2.03,0,0,0,.68,1.51l-4.158,7.978c-0.038-.009-0.076-0.018-0.114-0.025L314.34,447.92A2.014,2.014,0,0,0,315.308,447.234ZM313.4,472.421l-3.312-10.249a2.03,2.03,0,0,0,.88-1.176h1.795a2.021,2.021,0,0,0,1.329,1.428Zm-0.637-12.416H311a2.025,2.025,0,0,0-.883-1.268l3.282-10.158,0.692,10A2.021,2.021,0,0,0,312.758,460.005Zm1.582,13.075,0.731-10.582c0.038-.006.075-0.014,0.113-0.023l3.876,7.45,0.281,0.539a2.024,2.024,0,0,0-.678,1.508,2.211,2.211,0,0,0,.032.317l-3.4,1.465A2.013,2.013,0,0,0,314.34,473.08Zm10.423,9.339-9.183-6.633a2.028,2.028,0,0,0,.155-0.782,2.156,2.156,0,0,0-.031-0.325l3.384-1.473a1.958,1.958,0,0,0,1.948.765l3.771,8.41Zm2.05-.337a2,2,0,0,0-.752-0.148,2.19,2.19,0,0,0-.355.035l-0.812-1.811-2.959-6.6a2.005,2.005,0,0,0,.633-0.855l2.184,0.272,6.823,0.85a2,2,0,0,0,.45,1.045l-0.882,1.22Zm12.315,1.389H328.016a2.017,2.017,0,0,0-.409-0.8l5.213-7.208a1.972,1.972,0,0,0,1.5,0l5.213,7.208A2,2,0,0,0,339.128,483.471Zm2.311-1.5a2.179,2.179,0,0,0-.355-0.035,2.005,2.005,0,0,0-.753.148l-2.135-2.951-3.077-4.257a2.015,2.015,0,0,0,.452-1.045l6.924-.864,2.085-.259a2.038,2.038,0,0,0,.594.822l-3.608,8.156Zm0.942,0.449-0.043-.035,0.127-.289,3.643-8.124a1.969,1.969,0,0,0,.355.036,2.009,2.009,0,0,0,1.585-.785l4.386,1.892Zm6.073-10.121a2.156,2.156,0,0,0,.033-0.325,2.026,2.026,0,0,0-.674-1.5l2.337-4.437,1.9-3.606,0.085,0.019,0.755,11.783Zm4.664-9.921A2.025,2.025,0,0,0,354.443,461h1.722a2.038,2.038,0,0,0,.882,1.222l-3.288,10.169Zm46.86,8.206h-9.014a8.036,8.036,0,0,1-3.172-.618,7.562,7.562,0,0,1-2.528-1.725,7.953,7.953,0,0,1-1.668-2.628,9.5,9.5,0,0,1,0-6.65,7.959,7.959,0,0,1,1.668-2.627,7.562,7.562,0,0,1,2.528-1.725,8.4,8.4,0,0,1,6.321,0,7.545,7.545,0,0,1,2.526,1.722,7.931,7.931,0,0,1,1.671,2.625,8.942,8.942,0,0,1,.6,3.319,8.338,8.338,0,0,1-.924,3.914,7.137,7.137,0,0,1-2.77,2.862V469.1h4.762v1.485Zm-15.291-8.3a7.752,7.752,0,0,0,.433,2.6,6.89,6.89,0,0,0,1.235,2.175,5.868,5.868,0,0,0,1.971,1.5,6.46,6.46,0,0,0,5.253,0,5.977,5.977,0,0,0,1.981-1.5,6.9,6.9,0,0,0,1.257-2.175,7.778,7.778,0,0,0,0-5.192,6.909,6.909,0,0,0-1.257-2.176,5.923,5.923,0,0,0-4.6-2.06,6.056,6.056,0,0,0-2.638.557,5.855,5.855,0,0,0-1.971,1.5,6.9,6.9,0,0,0-1.235,2.176A7.749,7.749,0,0,0,384.687,462.286Zm29.794,8.3h-1.6V455.865H407.6V454.4h12.153v1.462h-5.275v14.717Zm20.941,0.41a6,6,0,0,1-2.916-.627,5.251,5.251,0,0,1-1.8-1.588,5.958,5.958,0,0,1-.924-2.092,9.723,9.723,0,0,1-.255-2.137V454.4h1.6v9.963a8.1,8.1,0,0,0,.222,1.908,4.829,4.829,0,0,0,.723,1.646,3.766,3.766,0,0,0,1.325,1.165,4.822,4.822,0,0,0,4.051,0,3.772,3.772,0,0,0,1.324-1.165,4.871,4.871,0,0,0,.725-1.646,8.151,8.151,0,0,0,.222-1.908V454.4h1.6v10.145a9.731,9.731,0,0,1-.257,2.137,5.906,5.906,0,0,1-.925,2.092,5.2,5.2,0,0,1-1.813,1.588A6.007,6.007,0,0,1,435.422,470.992Zm29.739-16.6-6.935,3.713-6.5-3.713-1.272.823v15.368h1.6V456.528h0.046l12.286,7.511v6.543H466V455.548Zm-5.12,4.991,4.362-2.4-0.01,5.053Z" transform="translate(-307 -435)"/>
</svg>
